<svg  id="em" width="40" height="40" fill="none" xmlns="http://www.w3.org/2000/svg"><path fill-rule="evenodd" clip-rule="evenodd" d="M20 40C8.954 40 0 31.046 0 20S8.954 0 20 0s20 8.954 20 20-8.954 20-20 20Zm.279-21.122c1.637 0 9.6-4.478 9.6-4.478l.012-.8c0-.883-.716-1.6-1.602-1.6H12.27a1.6 1.6 0 0 0-1.602 1.6v.713s8.05 4.565 9.612 4.565Zm-9.6-2.078s8.037 4.278 9.6 4.278c1.712 0 9.6-4.278 9.6-4.278l.012 9.6c0 .883-.716 1.6-1.602 1.6H12.27a1.601 1.601 0 0 1-1.602-1.6l.013-9.6Z" fill="#5D676F"/></svg>