<svg id="med" width="40" height="40" fill="none" xmlns="http://www.w3.org/2000/svg"><path fill-rule="evenodd" clip-rule="evenodd" d="M0 20C0 8.954 8.954 0 20 0s20 8.954 20 20-8.954 20-20 20S0 31.046 0 20Zm16.784-5.386L10.38 11.45a.35.35 0 0 0-.154-.04.208.208 0 0 0-.164.074.304.304 0 0 0-.062.199v13.582c0 .23.171.505.38.608l5.918 2.924c.082.04.16.06.231.06.2 0 .34-.153.34-.409V14.75a.151.151 0 0 0-.085-.135Zm13.25 14.178-5.75-2.84 6.32-10.15v12.642c0 .346-.256.503-.57.348ZM17.475 15.631v6.96l6.262 3.094-6.262-10.054Zm6.452-4.275 6.527 3.225c.081.04.11.14.063.217l-6.424 10.315-4.49-7.212 4.022-6.46a.238.238 0 0 1 .201-.108l.007.001c.032 0 .064.008.094.022Z" fill="#5D676F"/></svg>